HIERARCHY
ROOT Hips
{
	OFFSET	0.00	0.00	0.00
	CHANNELS 6 Xposition Yposition Zposition Zrotation Xrotation Yrotation
	JOINT LeftUpLeg
	{
		OFFSET	 0.126116	-0.065224	 0.014019
		CHANNELS 3 Zrotation Xrotation Yrotation
		JOINT LeftLeg
		{
			OFFSET	 0.000000	 0.569914	 0.000000
			CHANNELS 3 Zrotation Xrotation Yrotation
			JOINT LeftFoot
			{
				OFFSET	 0.000000	 0.544423	 0.000000
				CHANNELS 3 Zrotation Xrotation Yrotation
				JOINT LeftToeBase
				{
					OFFSET	 0.000000	 0.207117	 0.000000
					CHANNELS 3 Zrotation Xrotation Yrotation
					End Site
					{
						OFFSET	 0.000000	 0.207117	 0.000000
					}
				}
			}
		}
	}
	JOINT RightUpLeg
	{
		OFFSET	-0.124023	-0.065224	 0.008373
		CHANNELS 3 Zrotation Xrotation Yrotation
		JOINT RightLeg
		{
			OFFSET	 0.000000	 0.570047	 0.000000
			CHANNELS 3 Zrotation Xrotation Yrotation
			JOINT RightFoot
			{
				OFFSET	 0.000000	 0.544354	 0.000000
				CHANNELS 3 Zrotation Xrotation Yrotation
				JOINT RightToeBase
				{
					OFFSET	 0.000000	 0.207540	 0.000000
					CHANNELS 3 Zrotation Xrotation Yrotation
					End Site
					{
						OFFSET	 0.000000	 0.207540	 0.000000
					}
				}
			}
		}
	}
	JOINT Spine
	{
		OFFSET	 0.000184	 0.117403	 0.007763
		CHANNELS 3 Zrotation Xrotation Yrotation
		JOINT Spine1
		{
			OFFSET	 0.000000	 0.137269	 0.000000
			CHANNELS 3 Zrotation Xrotation Yrotation
			JOINT Spine2
			{
				OFFSET	 0.000000	 0.156879	 0.000000
				CHANNELS 3 Zrotation Xrotation Yrotation
				JOINT LeftShoulder
				{
					OFFSET	 0.080501	 0.160143	 0.002496
					CHANNELS 3 Zrotation Xrotation Yrotation
					JOINT LeftArm
					{
						OFFSET	 0.000000	 0.164363	 0.000000
						CHANNELS 3 Zrotation Xrotation Yrotation
						JOINT LeftForeArm
						{
							OFFSET	 0.000000	 0.364576	 0.000000
							CHANNELS 3 Zrotation Xrotation Yrotation
							JOINT LeftHand
							{
								OFFSET	 0.000000	 0.360812	 0.000000
								CHANNELS 3 Zrotation Xrotation Yrotation
								JOINT LeftHandIndex1
								{
									OFFSET	 0.000000	 0.086006	 0.000000
									CHANNELS 3 Zrotation Xrotation Yrotation
									JOINT LeftHandIndex2
									{
										OFFSET	 0.000000	 0.047237	 0.000000
										CHANNELS 3 Zrotation Xrotation Yrotation
										JOINT LeftHandIndex3
										{
											OFFSET	-0.004284	 0.038165	 0.000551
											CHANNELS 3 Zrotation Xrotation Yrotation
											End Site
											{
												OFFSET	-0.004284	 0.038165	 0.000551
											}
										}
									}
								}
							}
						}
					}
				}
				JOINT Neck
				{
					OFFSET	 0.000000	 0.176489	 0.000000
					CHANNELS 3 Zrotation Xrotation Yrotation
					JOINT Head
					{
						OFFSET	 0.000000	 0.077941	 0.001747
						CHANNELS 3 Zrotation Xrotation Yrotation
						End Site
						{
							OFFSET	 0.000000	 0.077941	 0.001747
						}
					}
				}
				JOINT RightShoulder
				{
					OFFSET	-0.080363	 0.159706	-0.000306
					CHANNELS 3 Zrotation Xrotation Yrotation
					JOINT RightArm
					{
						OFFSET	 0.000000	 0.164196	 0.000000
						CHANNELS 3 Zrotation Xrotation Yrotation
						JOINT RightForeArm
						{
							OFFSET	 0.000000	 0.365611	 0.000000
							CHANNELS 3 Zrotation Xrotation Yrotation
							JOINT RightHand
							{
								OFFSET	 0.000000	 0.360648	 0.000000
								CHANNELS 3 Zrotation Xrotation Yrotation
								JOINT RightHandIndex1
								{
									OFFSET	 0.000000	 0.069977	 0.000000
									CHANNELS 3 Zrotation Xrotation Yrotation
									JOINT RightHandIndex2
									{
										OFFSET	 0.000000	 0.052305	 0.000000
										CHANNELS 3 Zrotation Xrotation Yrotation
										JOINT RightHandIndex3
										{
											OFFSET	 0.009002	 0.042196	 0.000782
											CHANNELS 3 Zrotation Xrotation Yrotation
											End Site
											{
												OFFSET	 0.009002	 0.042196	 0.000782
											}
										}
									}
								}
							}
						}
					}
				}
			}
		}
	}
}
MOTION
Frames:    4
Frame Time: 0.03333334
 0.018172	 1.282541	 0.001129	-0.265296	 2.547245	-179.532500	-176.547700	 5.068804	-21.371060	 3.312728	-16.314730	 4.834487	-0.998906	 66.590330	 1.664830	 1.331492	 28.938720	-2.729976	 177.012800	 5.931212	 28.286690	-5.549649	-17.695180	-7.214899	-0.561862	 68.720220	 0.379131	-1.292265	 28.417120	 2.842502	-2.419768	 4.160964	 25.468060	-0.796750	 1.048096	 3.876829	-1.049961	 2.803979	-11.801080	-113.441200	 5.267016	 92.975810	 5.359539	 48.028350	 34.878870	 40.515030	-1.206455	 19.009230	 11.161720	-51.181530	 26.372100	-6.580301	 5.266122	 0.000000	 0.000000	 0.000000	 0.000000	 0.000000	 0.000000	 0.000000	 4.871512	-0.226856	-0.557092	 5.060633	 0.726300	-1.954543	 114.239900	-4.553567	-88.249730	-48.668790	 49.023350	-26.984030	-98.189770	-1.682333	-20.919620	-55.469440	-66.384700	-86.955030	-0.744162	 21.127580	 0.850024	 12.328560	 19.631550	-4.386653	-8.449926	 8.601567	-0.241799
 0.020156	 1.282372	 0.004369	-0.491812	 2.647408	-178.843000	-176.755900	 5.390994	-20.800860	 3.308726	-16.296090	 5.566092	 0.744817	 66.383710	-0.175942	 1.331492	 28.938720	-2.729976	 176.704300	 6.198316	 29.396900	-5.734246	-18.243540	-7.099688	-0.311931	 68.935270	-0.019637	-1.290764	 28.401170	 2.911382	-1.590246	 4.611639	 14.754280	-0.763190	 1.467349	 3.749791	-1.280870	 2.664486	-12.167800	-113.442500	 5.089720	 92.918080	 6.949545	 47.959440	 33.989830	 44.095820	-1.218927	 22.384780	 11.127490	-49.141620	 26.910580	-6.580301	 5.266122	 0.000000	 0.000000	 0.000000	 0.000000	 0.000000	 0.000000	 0.000000	 4.512579	-0.181744	-0.697376	 4.997312	 0.420835	-2.386889	 114.222600	-4.434441	-88.325020	-38.922260	 55.400860	-28.156050	-63.188900	-1.368387	-22.841890	-14.863550	-73.016670	-13.981800	-0.855226	 23.945570	 0.892599	 12.501620	 22.384870	-5.035846	-8.467758	 9.975984	-0.328447
 0.021529	 1.282092	 0.007362	-0.406151	 2.983927	 179.905300	-176.382900	 5.114824	-22.263830	 3.367615	-16.569990	 4.901226	-1.005356	 66.303440	 1.586023	 1.331492	 28.938720	-2.729976	 176.921700	 6.466015	 28.252420	-5.899654	-18.731800	-8.466282	-4.026245	 69.007630	 3.755118	-1.292461	 28.423970	 2.928095	-0.606689	 4.945194	 3.383044	-0.761948	 1.670023	 3.772207	-1.238537	 2.692127	-12.323410	-113.444800	 5.066432	 92.941080	 7.610674	 47.526470	 34.642190	 44.880260	-1.154576	 24.878070	 9.446171	-42.964050	 27.503690	-6.580301	 5.266122	 0.000000	 0.000000	 0.000000	 0.000000	 0.000000	 0.000000	 0.000000	 4.155308	-0.139901	-0.756159	 4.764908	 0.564348	-2.468465	 114.211500	-4.357675	-88.376190	-26.767390	 48.379460	-34.675210	-72.362520	-1.433575	-25.647530	 30.546730	-58.483930	 23.243740	-0.763302	 21.621390	 0.856997	 12.356270	 20.114150	-4.498919	-8.453623	 8.873588	-0.258967
 0.022036	 1.281991	 0.009944	-0.296049	 3.290027	 178.743500	-176.051200	 4.772590	-23.610760	 3.415435	-16.791900	 4.288614	-2.584758	 66.268040	 3.190213	 1.331492	 28.938720	-2.729976	 177.115100	 6.630061	 27.180750	-6.019497	-19.083760	-9.693249	-7.316681	 68.962460	 7.142478	-1.294040	 28.445090	 2.943578	 0.346591	 5.059530	-7.055538	-0.647589	 1.669960	 3.569437	-1.243480	 2.807992	-12.467990	-113.446900	 5.044868	 92.962390	 7.526047	 47.096020	 35.814320	 44.613700	-1.090225	 26.320280	 7.338207	-34.856170	 26.886970	-6.580301	 5.266122	 0.000000	 0.000000	 0.000000	 0.000000	 0.000000	 0.000000	 0.000000	 3.824434	-0.100819	-0.810372	 4.549851	 0.697188	-2.543721	 114.201200	-4.286554	-88.423580	-14.425230	 35.711690	-39.984920	-94.488090	-1.490959	-27.962960	 52.418070	-35.995530	 27.162190	-0.680758	 19.468410	 0.828027	 12.243350	 18.009700	-4.013488	-8.439363	 7.852523	-0.194542
